# xmcd CD database file
#
# Track frame offsets:
#	183
#	14133
#	30033
#	50133
#	63408
#	79308
#	95808
#	111108
#	121833
#	132408
#	147408
#	161733
#	175758
#	192558
#	206283
#	220008
#	238233
#	248208
#	264183
#	276633
#
# Disc length: 3956 seconds
#
# Revision: 0
# Processed by: cddbd v1.4PL0 Copyright (c) Steve Scherf et al.
# Submitted via: CDex 1.51
#
DISCID=300f7214
DTITLE=Various Artist - The British Traditional Jazz Collection Vol. 2
DYEAR=1989
DGENRE=Jazz
TTITLE0=The Sims-Wheeler Vintage Jazz Band - Come On And Stomp, Stomp, Stomp
TTITLE1=Monty Sunshine Quartet - Jacqueline
TTITLE2=Micky Ashman's Ragtime Band - When I Leave The World Behind
TTITLE3=Alex Welsh And His Band - Memphis March
TTITLE4=Mr. Acker Bilk And His Paramount Jazzband - Creole Love Call
TTITLE5=The Mike Cotton Jazzmen - Senora
TTITLE6=Archie Semple - Alex Welsh Big Four - Carolina Moon
TTITLE7=Chris Barber's Jazzband - Tell It To The Marines
TTITLE8=Terry Lightfoot's New Orleans Jazzmen - Riverside blues
TTITLE9=Ken Colyer's Jazzmen - Papa Dip
TTITLE10=Monty Sunshine Quartet - Sobbin' And Cryin'
TTITLE11=Mr. Acker Bilk And His Paramount Jazzband - Grandpa's Spells
TTITLE12=The Sims-Wheeler Vintage Jazz Band - Weeping Willow Blues
TTITLE13=Alex Welsh And His Band - Montmartre
TTITLE14=Micky Ashman's Ragtime Band - Oh, You Beautiful Doll
TTITLE15=The Mike Cotton Jazzmen - Out Of The Gallion
TTITLE16=Chris Barber's Jazzband - Revival
TTITLE17=Archie Semple - Alex Welsh Big Four - Solitariness
TTITLE18=Terry Lightfoot's New Orleans Jazzmen - King Kong
TTITLE19=Ken Colyer's Jazzmen - Somebody Stole My Gal
EXTD=YEAR: 1989
EXTT0=
EXTT1=
EXTT2=
EXTT3=
EXTT4=
EXTT5=
EXTT6=
EXTT7=
EXTT8=
EXTT9=
EXTT10=
EXTT11=
EXTT12=
EXTT13=
EXTT14=
EXTT15=
EXTT16=
EXTT17=
EXTT18=
EXTT19=
PLAYORDER=
